<mxfile host="app.diagrams.net" modified="2021-06-30T06:06:57.544Z" agent="5.0 (X11; Linux x86_64) AppleWebKit/537.36 (KHTML, like Gecko) Chrome/90.0.4430.93 Safari/537.36" etag="VZt3VZcBnKOKU0xilWr-" version="14.8.2" type="github">
  <diagram id="C5RBs43oDa-KdzZeNtuy" name="Page-1">
    <mxGraphModel dx="798" dy="1663" grid="1" gridSize="10" guides="1" tooltips="1" connect="1" arrows="1" fold="1" page="1" pageScale="1" pageWidth="827" pageHeight="1169" math="0" shadow="0">
      <root>
        <mxCell id="WIyWlLk6GJQsqaUBKTNV-0" />
        <mxCell id="WIyWlLk6GJQsqaUBKTNV-1" parent="WIyWlLk6GJQsqaUBKTNV-0" />
        <mxCell id="VmglMGammwMFqogHqzrL-9" value="request documents" style="edgeStyle=orthogonalEdgeStyle;rounded=0;orthogonalLoop=1;jettySize=auto;html=1;entryX=0.5;entryY=0;entryDx=0;entryDy=0;" edge="1" parent="WIyWlLk6GJQsqaUBKTNV-1" source="WIyWlLk6GJQsqaUBKTNV-3" target="VmglMGammwMFqogHqzrL-6">
          <mxGeometry x="-0.4074" y="10" relative="1" as="geometry">
            <Array as="points">
              <mxPoint x="320" y="-115" />
              <mxPoint x="320" y="20" />
              <mxPoint x="230" y="20" />
            </Array>
            <mxPoint as="offset" />
          </mxGeometry>
        </mxCell>
        <mxCell id="VmglMGammwMFqogHqzrL-27" style="edgeStyle=orthogonalEdgeStyle;rounded=0;orthogonalLoop=1;jettySize=auto;html=1;exitX=1;exitY=0.25;exitDx=0;exitDy=0;entryX=0.5;entryY=0;entryDx=0;entryDy=0;" edge="1" parent="WIyWlLk6GJQsqaUBKTNV-1" source="WIyWlLk6GJQsqaUBKTNV-3" target="VmglMGammwMFqogHqzrL-2">
          <mxGeometry relative="1" as="geometry" />
        </mxCell>
        <mxCell id="WIyWlLk6GJQsqaUBKTNV-3" value="Django" style="rounded=1;whiteSpace=wrap;html=1;fontSize=12;glass=0;strokeWidth=1;shadow=0;direction=west;" parent="WIyWlLk6GJQsqaUBKTNV-1" vertex="1">
          <mxGeometry x="170" y="-150" width="120" height="70" as="geometry" />
        </mxCell>
        <mxCell id="VmglMGammwMFqogHqzrL-2" value="Redis" style="rounded=1;whiteSpace=wrap;html=1;" vertex="1" parent="WIyWlLk6GJQsqaUBKTNV-1">
          <mxGeometry x="10" y="40" width="120" height="60" as="geometry" />
        </mxCell>
        <mxCell id="VmglMGammwMFqogHqzrL-42" style="edgeStyle=orthogonalEdgeStyle;rounded=0;orthogonalLoop=1;jettySize=auto;html=1;exitX=1;exitY=0.5;exitDx=0;exitDy=0;entryX=1;entryY=0.5;entryDx=0;entryDy=0;entryPerimeter=0;" edge="1" parent="WIyWlLk6GJQsqaUBKTNV-1" source="VmglMGammwMFqogHqzrL-3" target="VmglMGammwMFqogHqzrL-35">
          <mxGeometry relative="1" as="geometry" />
        </mxCell>
        <mxCell id="VmglMGammwMFqogHqzrL-3" value="Postgres" style="rounded=1;whiteSpace=wrap;html=1;" vertex="1" parent="WIyWlLk6GJQsqaUBKTNV-1">
          <mxGeometry x="450" y="50" width="120" height="60" as="geometry" />
        </mxCell>
        <mxCell id="VmglMGammwMFqogHqzrL-10" value="response documents" style="edgeStyle=orthogonalEdgeStyle;rounded=0;orthogonalLoop=1;jettySize=auto;html=1;exitX=0.25;exitY=0;exitDx=0;exitDy=0;entryX=0;entryY=0.25;entryDx=0;entryDy=0;" edge="1" parent="WIyWlLk6GJQsqaUBKTNV-1" source="VmglMGammwMFqogHqzrL-6" target="WIyWlLk6GJQsqaUBKTNV-3">
          <mxGeometry x="0.4783" y="10" relative="1" as="geometry">
            <Array as="points">
              <mxPoint x="400" y="50" />
              <mxPoint x="400" y="-97" />
            </Array>
            <mxPoint as="offset" />
          </mxGeometry>
        </mxCell>
        <mxCell id="VmglMGammwMFqogHqzrL-6" value="Elastic Search" style="rounded=1;whiteSpace=wrap;html=1;" vertex="1" parent="WIyWlLk6GJQsqaUBKTNV-1">
          <mxGeometry x="170" y="40" width="120" height="60" as="geometry" />
        </mxCell>
        <mxCell id="VmglMGammwMFqogHqzrL-11" value="User" style="shape=umlActor;verticalLabelPosition=bottom;verticalAlign=top;html=1;outlineConnect=0;" vertex="1" parent="WIyWlLk6GJQsqaUBKTNV-1">
          <mxGeometry x="20" y="-140" width="40" height="70" as="geometry" />
        </mxCell>
        <mxCell id="VmglMGammwMFqogHqzrL-16" value="Url" style="rounded=0;whiteSpace=wrap;html=1;" vertex="1" parent="WIyWlLk6GJQsqaUBKTNV-1">
          <mxGeometry x="410" y="-170" width="80" height="40" as="geometry" />
        </mxCell>
        <mxCell id="VmglMGammwMFqogHqzrL-22" value="View" style="rounded=0;whiteSpace=wrap;html=1;" vertex="1" parent="WIyWlLk6GJQsqaUBKTNV-1">
          <mxGeometry x="560" y="-170" width="80" height="40" as="geometry" />
        </mxCell>
        <mxCell id="VmglMGammwMFqogHqzrL-23" value="" style="shape=singleArrow;whiteSpace=wrap;html=1;" vertex="1" parent="WIyWlLk6GJQsqaUBKTNV-1">
          <mxGeometry x="70" y="-150" width="100" height="20" as="geometry" />
        </mxCell>
        <mxCell id="VmglMGammwMFqogHqzrL-25" value="" style="shape=singleArrow;direction=west;whiteSpace=wrap;html=1;" vertex="1" parent="WIyWlLk6GJQsqaUBKTNV-1">
          <mxGeometry x="70" y="-125" width="100" height="20" as="geometry" />
        </mxCell>
        <mxCell id="VmglMGammwMFqogHqzrL-28" value="" style="shape=doubleArrow;whiteSpace=wrap;html=1;" vertex="1" parent="WIyWlLk6GJQsqaUBKTNV-1">
          <mxGeometry x="500" y="-160" width="50" height="20" as="geometry" />
        </mxCell>
        <mxCell id="VmglMGammwMFqogHqzrL-31" value="" style="shape=doubleArrow;whiteSpace=wrap;html=1;" vertex="1" parent="WIyWlLk6GJQsqaUBKTNV-1">
          <mxGeometry x="300" y="-160" width="100" height="20" as="geometry" />
        </mxCell>
        <mxCell id="VmglMGammwMFqogHqzrL-35" value="Model" style="html=1;whiteSpace=wrap;shape=isoCube2;backgroundOutline=1;isoAngle=15;" vertex="1" parent="WIyWlLk6GJQsqaUBKTNV-1">
          <mxGeometry x="670" y="-300" width="90" height="100" as="geometry" />
        </mxCell>
        <mxCell id="VmglMGammwMFqogHqzrL-36" value="" style="edgeStyle=elbowEdgeStyle;elbow=horizontal;endArrow=classic;html=1;" edge="1" parent="WIyWlLk6GJQsqaUBKTNV-1">
          <mxGeometry width="50" height="50" relative="1" as="geometry">
            <mxPoint x="640" y="-160" as="sourcePoint" />
            <mxPoint x="680" y="-210" as="targetPoint" />
            <Array as="points">
              <mxPoint x="655" y="-170" />
            </Array>
          </mxGeometry>
        </mxCell>
        <mxCell id="VmglMGammwMFqogHqzrL-37" value="Templates" style="shape=ext;double=1;whiteSpace=wrap;html=1;aspect=fixed;" vertex="1" parent="WIyWlLk6GJQsqaUBKTNV-1">
          <mxGeometry x="680" y="-105" width="80" height="80" as="geometry" />
        </mxCell>
        <mxCell id="VmglMGammwMFqogHqzrL-38" value="" style="edgeStyle=elbowEdgeStyle;elbow=horizontal;endArrow=classic;html=1;" edge="1" parent="WIyWlLk6GJQsqaUBKTNV-1">
          <mxGeometry width="50" height="50" relative="1" as="geometry">
            <mxPoint x="650" y="-140" as="sourcePoint" />
            <mxPoint x="680" y="-80" as="targetPoint" />
          </mxGeometry>
        </mxCell>
        <mxCell id="VmglMGammwMFqogHqzrL-40" value="" style="edgeStyle=elbowEdgeStyle;elbow=horizontal;endArrow=classic;html=1;entryX=1;entryY=1;entryDx=0;entryDy=0;" edge="1" parent="WIyWlLk6GJQsqaUBKTNV-1" target="VmglMGammwMFqogHqzrL-22">
          <mxGeometry width="50" height="50" relative="1" as="geometry">
            <mxPoint x="670" y="-60" as="sourcePoint" />
            <mxPoint x="650" y="-110" as="targetPoint" />
          </mxGeometry>
        </mxCell>
        <mxCell id="VmglMGammwMFqogHqzrL-41" value="" style="edgeStyle=elbowEdgeStyle;elbow=horizontal;endArrow=classic;html=1;entryX=1;entryY=0;entryDx=0;entryDy=0;" edge="1" parent="WIyWlLk6GJQsqaUBKTNV-1" target="VmglMGammwMFqogHqzrL-22">
          <mxGeometry width="50" height="50" relative="1" as="geometry">
            <mxPoint x="660" y="-220" as="sourcePoint" />
            <mxPoint x="600" y="-40" as="targetPoint" />
          </mxGeometry>
        </mxCell>
      </root>
    </mxGraphModel>
  </diagram>
</mxfile>
